<svg xmlns="http://www.w3.org/2000/svg" viewBox="0 0 400 400" width="400" height="400">
<defs>
<filter id="gs"><feGaussianBlur stdDeviation="3" result="b"/><feMerge><feMergeNode in="b"/><feMergeNode in="b"/><feMergeNode in="SourceGraphic"/></feMerge></filter>
<filter id="gm"><feGaussianBlur stdDeviation="5" result="b"/><feMerge><feMergeNode in="b"/><feMergeNode in="b"/><feMergeNode in="SourceGraphic"/></feMerge></filter>
<filter id="gl"><feGaussianBlur stdDeviation="10" result="b"/><feMerge><feMergeNode in="b"/><feMergeNode in="b"/><feMergeNode in="b"/><feMergeNode in="SourceGraphic"/></feMerge></filter>
<radialGradient id="bg" cx="50%" cy="50%" r="50%">
<stop offset="0%" stop-color="#1e0812"/>
<stop offset="60%" stop-color="#10050d"/>
<stop offset="100%" stop-color="#08060c"/>
</radialGradient>
<radialGradient id="aura" cx="50%" cy="50%" r="50%">
<stop offset="0%" stop-color="#f0147a" stop-opacity="0.18"/>
<stop offset="100%" stop-color="#f0147a" stop-opacity="0"/>
</radialGradient>
</defs>

<!-- BG -->
<circle cx="200" cy="200" r="200" fill="url(#bg)"/>
<circle cx="200" cy="200" r="200" fill="url(#aura)"/>

<!-- Outer decorative ring -->
<circle cx="200" cy="200" r="178" fill="none" stroke="#f0147a" stroke-width="0.6" stroke-opacity="0.12" stroke-dasharray="3 9"/>
<circle cx="200" cy="200" r="162" fill="none" stroke="#f0147a" stroke-width="0.4" stroke-opacity="0.08"/>

<!-- OUTER ring connections -->
<g stroke="#f0147a" stroke-width="0.7" stroke-opacity="0.18">
<line x1="348" y1="200" x2="305" y2="305"/>
<line x1="305" y1="305" x2="200" y2="348"/>
<line x1="200" y1="348" x2="95" y2="305"/>
<line x1="95" y1="305" x2="52" y2="200"/>
<line x1="52" y1="200" x2="95" y2="95"/>
<line x1="95" y1="95" x2="200" y2="52"/>
<line x1="200" y1="52" x2="305" y2="95"/>
<line x1="305" y1="95" x2="348" y2="200"/>
</g>

<!-- Outer to middle connections -->
<g stroke="#f0147a" stroke-width="0.8" stroke-opacity="0.22">
<line x1="348" y1="200" x2="310" y2="200"/>
<line x1="348" y1="200" x2="295" y2="145"/>
<line x1="305" y1="95" x2="295" y2="145"/>
<line x1="305" y1="95" x2="255" y2="105"/>
<line x1="200" y1="52" x2="200" y2="90"/>
<line x1="95" y1="95" x2="145" y2="105"/>
<line x1="95" y1="95" x2="105" y2="145"/>
<line x1="52" y1="200" x2="90" y2="200"/>
<line x1="95" y1="305" x2="105" y2="255"/>
<line x1="95" y1="305" x2="145" y2="295"/>
<line x1="200" y1="348" x2="200" y2="310"/>
<line x1="305" y1="305" x2="255" y2="295"/>
<line x1="305" y1="305" x2="295" y2="255"/>
</g>

<!-- Middle ring -->
<g stroke="#f0147a" stroke-width="1" stroke-opacity="0.28">
<line x1="310" y1="200" x2="295" y2="255"/>
<line x1="295" y1="255" x2="255" y2="295"/>
<line x1="255" y1="295" x2="200" y2="310"/>
<line x1="200" y1="310" x2="145" y2="295"/>
<line x1="145" y1="295" x2="105" y2="255"/>
<line x1="105" y1="255" x2="90" y2="200"/>
<line x1="90" y1="200" x2="105" y2="145"/>
<line x1="105" y1="145" x2="145" y2="105"/>
<line x1="145" y1="105" x2="200" y2="90"/>
<line x1="200" y1="90" x2="255" y2="105"/>
<line x1="255" y1="105" x2="295" y2="145"/>
<line x1="295" y1="145" x2="310" y2="200"/>
</g>

<!-- Middle to inner connections -->
<g stroke="#f0147a" stroke-width="1.1" stroke-opacity="0.35" filter="url(#gs)">
<line x1="310" y1="200" x2="260" y2="200"/>
<line x1="295" y1="255" x2="242" y2="242"/>
<line x1="255" y1="295" x2="200" y2="260"/>
<line x1="200" y1="310" x2="200" y2="260"/>
<line x1="145" y1="295" x2="158" y2="242"/>
<line x1="105" y1="255" x2="158" y2="242"/>
<line x1="90" y1="200" x2="140" y2="200"/>
<line x1="105" y1="145" x2="158" y2="158"/>
<line x1="145" y1="105" x2="200" y2="140"/>
<line x1="200" y1="90" x2="200" y2="140"/>
<line x1="255" y1="105" x2="242" y2="158"/>
<line x1="295" y1="145" x2="260" y2="200"/>
<!-- cross diagonals -->
<line x1="295" y1="255" x2="260" y2="200"/>
<line x1="255" y1="295" x2="242" y2="242"/>
<line x1="145" y1="295" x2="200" y2="260"/>
<line x1="105" y1="255" x2="140" y2="200"/>
<line x1="145" y1="105" x2="158" y2="158"/>
<line x1="255" y1="105" x2="200" y2="140"/>
</g>

<!-- Inner ring -->
<g stroke="#f0147a" stroke-width="1.4" stroke-opacity="0.5" filter="url(#gs)">
<line x1="260" y1="200" x2="242" y2="242"/>
<line x1="242" y1="242" x2="200" y2="260"/>
<line x1="200" y1="260" x2="158" y2="242"/>
<line x1="158" y1="242" x2="140" y2="200"/>
<line x1="140" y1="200" x2="158" y2="158"/>
<line x1="158" y1="158" x2="200" y2="140"/>
<line x1="200" y1="140" x2="242" y2="158"/>
<line x1="242" y1="158" x2="260" y2="200"/>
</g>

<!-- Center spokes -->
<g stroke="#f0147a" stroke-width="1.5" stroke-opacity="0.6" filter="url(#gm)">
<line x1="200" y1="200" x2="260" y2="200"/>
<line x1="200" y1="200" x2="242" y2="242"/>
<line x1="200" y1="200" x2="200" y2="260"/>
<line x1="200" y1="200" x2="158" y2="242"/>
<line x1="200" y1="200" x2="140" y2="200"/>
<line x1="200" y1="200" x2="158" y2="158"/>
<line x1="200" y1="200" x2="200" y2="140"/>
<line x1="200" y1="200" x2="242" y2="158"/>
</g>

<!-- Outer ring nodes -->
<g fill="#f0147a" opacity="0.6" filter="url(#gs)">
<circle cx="348" cy="200" r="2.5"/>
<circle cx="305" cy="305" r="2.5"/>
<circle cx="200" cy="348" r="2.5"/>
<circle cx="95" cy="305" r="2.5"/>
<circle cx="52" cy="200" r="2.5"/>
<circle cx="95" cy="95" r="2.5"/>
<circle cx="200" cy="52" r="2.5"/>
<circle cx="305" cy="95" r="2.5"/>
</g>

<!-- Middle ring nodes -->
<g fill="#f0147a" opacity="0.8" filter="url(#gm)">
<circle cx="310" cy="200" r="3.5"/>
<circle cx="295" cy="255" r="3"/>
<circle cx="255" cy="295" r="3"/>
<circle cx="200" cy="310" r="3.5"/>
<circle cx="145" cy="295" r="3"/>
<circle cx="105" cy="255" r="3"/>
<circle cx="90" cy="200" r="3.5"/>
<circle cx="105" cy="145" r="3"/>
<circle cx="145" cy="105" r="3"/>
<circle cx="200" cy="90" r="3.5"/>
<circle cx="255" cy="105" r="3"/>
<circle cx="295" cy="145" r="3"/>
</g>

<!-- Inner ring nodes -->
<g fill="#f0147a" filter="url(#gm)">
<circle cx="260" cy="200" r="4.5"/>
<circle cx="242" cy="242" r="4"/>
<circle cx="200" cy="260" r="4.5"/>
<circle cx="158" cy="242" r="4"/>
<circle cx="140" cy="200" r="4.5"/>
<circle cx="158" cy="158" r="4"/>
<circle cx="200" cy="140" r="4.5"/>
<circle cx="242" cy="158" r="4"/>
</g>

<!-- Center node glow layers -->
<circle cx="200" cy="200" r="22" fill="#f0147a" opacity="0.06"/>
<circle cx="200" cy="200" r="14" fill="#f0147a" opacity="0.12"/>
<circle cx="200" cy="200" r="9" fill="#f0147a" filter="url(#gl)"/>
<circle cx="200" cy="200" r="6" fill="#ff5aaa" filter="url(#gm)"/>
<circle cx="200" cy="200" r="3.5" fill="#ffffff" opacity="0.9"/>
</svg>
