<?xml version="1.0" standalone="no"?>
<!DOCTYPE svg PUBLIC "-//W3C//DTD SVG 20010904//EN"
 "http://www.w3.org/TR/2001/REC-SVG-20010904/DTD/svg10.dtd">
<svg version="1.0" xmlns="http://www.w3.org/2000/svg"
 width="249.000000pt" height="249.000000pt" viewBox="0 0 249.000000 249.000000"
 preserveAspectRatio="xMidYMid meet">

<g transform="translate(0.000000,249.000000) scale(0.100000,-0.100000)"
fill="#000000" stroke="none">
<path d="M2039 1883 l-196 -86 -6 -69 c-7 -83 -40 -158 -92 -212 -62 -62 -153
-94 -183 -64 -19 19 -14 51 18 119 31 67 50 136 34 127 -5 -3 -158 -69 -341
-148 l-331 -143 -14 -81 c-22 -132 -17 -315 11 -414 77 -273 308 -378 561
-255 92 45 215 164 276 268 28 48 47 70 60 70 16 0 19 -7 18 -53 -5 -167 -232
-409 -447 -477 -264 -84 -568 48 -687 296 -62 131 -74 191 -75 366 0 83 -2
150 -5 148 -3 -1 -139 -60 -302 -131 -222 -95 -298 -132 -298 -145 0 -39 55
-201 100 -294 231 -480 762 -760 1291 -680 791 119 1263 939 968 1683 -38 97
-130 256 -150 259 -8 1 -102 -37 -210 -84z"/>
</g>
</svg>
